<?xml version="1.0" encoding="UTF-8"?>
<svg width="96" height="96" viewBox="0 0 96 96" fill="none" xmlns="http://www.w3.org/2000/svg">
  <path d="M63.8 18.3c-9.6 2.7-17.9 9.4-22.6 18.3-4.8 9-5.5 19.6-2 29 4.6 12.3 16.4 20.6 29.5 20.7 7.8 0 15-2.8 20.6-7.9 0.9-0.8 1-2.1 0.3-3.1-0.7-1-2-1.3-3.1-0.8-4.8 2.2-10 3-15.2 2.2-8.8-1.3-16.2-7.5-18.8-16 10.9-2.2 20.2-8.9 25.6-18.7 4.8-8.8 5.6-19.3 2.2-29.1-0.5-1.4-2-2.2-3.4-1.8-5.4 1.3-10.8 3.1-13.1 4.2z" fill="currentColor"/>
  <path d="M22.8 77.8c-1.2 0-2.2-1-2.2-2.2 0-26.7 21.7-48.4 48.4-48.4 1.2 0 2.2 1 2.2 2.2 0 1.2-1 2.2-2.2 2.2-24.2 0-44 19.7-44 44 0 1.2-1 2.2-2.2 2.2z" fill="currentColor" opacity="0.8"/>
</svg>
